<svg width="277" height="58" viewBox="0 0 277 58" fill="none" xmlns="http://www.w3.org/2000/svg">
<path d="M0.200195 45.0005V3.00047H21.6802C27.2002 3.00047 31.3202 4.02047 34.0402 6.06047C36.7602 8.06047 38.1202 10.7005 38.1202 13.9805C38.1202 16.1405 37.5402 18.0405 36.3802 19.6805C35.2602 21.2805 33.6602 22.5605 31.5802 23.5205C29.5402 24.4405 27.1002 24.9005 24.2602 24.9005L25.4602 22.0205C28.4202 22.0205 31.0002 22.4805 33.2002 23.4005C35.4002 24.2805 37.1002 25.5805 38.3002 27.3005C39.5402 28.9805 40.1602 31.0405 40.1602 33.4805C40.1602 37.1205 38.6802 39.9605 35.7202 42.0005C32.8002 44.0005 28.5202 45.0005 22.8802 45.0005H0.200195ZM11.9602 36.4205H21.9202C23.9602 36.4205 25.5002 36.0805 26.5402 35.4005C27.6202 34.6805 28.1602 33.6005 28.1602 32.1605C28.1602 30.7205 27.6202 29.6605 26.5402 28.9805C25.5002 28.2605 23.9602 27.9005 21.9202 27.9005H11.1202V19.6805H20.1202C22.1202 19.6805 23.6202 19.3405 24.6202 18.6605C25.6202 17.9805 26.1202 16.9605 26.1202 15.6005C26.1202 14.2405 25.6202 13.2405 24.6202 12.6005C23.6202 11.9205 22.1202 11.5805 20.1202 11.5805H11.9602V36.4205Z" fill="white"/>
<path d="M47.7735 45.0005V0.480469H59.1735V45.0005H47.7735Z" fill="white"/>
<path d="M84.9021 45.5405C81.3421 45.5405 78.1821 44.8205 75.4221 43.3805C72.6621 41.9405 70.4821 39.9605 68.8821 37.4405C67.3221 34.8805 66.5421 31.9605 66.5421 28.6805C66.5421 25.4005 67.3221 22.5005 68.8821 19.9805C70.4821 17.4605 72.6621 15.5005 75.4221 14.1005C78.1821 12.6605 81.3421 11.9405 84.9021 11.9405C88.4621 11.9405 91.6221 12.6605 94.3821 14.1005C97.1821 15.5005 99.3621 17.4605 100.922 19.9805C102.482 22.5005 103.262 25.4005 103.262 28.6805C103.262 31.9605 102.482 34.8805 100.922 37.4405C99.3621 39.9605 97.1821 41.9405 94.3821 43.3805C91.6221 44.8205 88.4621 45.5405 84.9021 45.5405ZM84.9021 36.4805C86.2221 36.4805 87.3821 36.1805 88.3821 35.5805C89.4221 34.9805 90.2421 34.1005 90.8421 32.9405C91.4421 31.7405 91.7421 30.3205 91.7421 28.6805C91.7421 27.0405 91.4421 25.6605 90.8421 24.5405C90.2421 23.3805 89.4221 22.5005 88.3821 21.9005C87.3821 21.3005 86.2221 21.0005 84.9021 21.0005C83.6221 21.0005 82.4621 21.3005 81.4221 21.9005C80.4221 22.5005 79.6021 23.3805 78.9621 24.5405C78.3621 25.6605 78.0621 27.0405 78.0621 28.6805C78.0621 30.3205 78.3621 31.7405 78.9621 32.9405C79.6021 34.1005 80.4221 34.9805 81.4221 35.5805C82.4621 36.1805 83.6221 36.4805 84.9021 36.4805Z" fill="white"/>
<path d="M126.443 57.1805C123.323 57.1805 120.343 56.8205 117.503 56.1005C114.703 55.3805 112.303 54.3205 110.303 52.9205L114.443 44.9405C115.803 46.0205 117.483 46.8605 119.483 47.4605C121.523 48.1005 123.503 48.4205 125.423 48.4205C128.503 48.4205 130.723 47.7405 132.083 46.3805C133.443 45.0605 134.123 43.1205 134.123 40.5605V36.7205L134.723 27.6005L134.663 18.4205V12.4805H145.523V39.0605C145.523 45.2205 143.863 49.7805 140.543 52.7405C137.223 55.7005 132.523 57.1805 126.443 57.1805ZM124.463 43.3205C121.583 43.3205 118.923 42.6805 116.483 41.4005C114.083 40.0805 112.143 38.2605 110.663 35.9405C109.223 33.5805 108.503 30.8005 108.503 27.6005C108.503 24.4005 109.223 21.6405 110.663 19.3205C112.143 16.9605 114.083 15.1405 116.483 13.8605C118.923 12.5805 121.583 11.9405 124.463 11.9405C127.223 11.9405 129.583 12.5005 131.543 13.6205C133.503 14.7005 134.983 16.4005 135.983 18.7205C137.023 21.0405 137.543 24.0005 137.543 27.6005C137.543 31.2005 137.023 34.1605 135.983 36.4805C134.983 38.8005 133.503 40.5205 131.543 41.6405C129.583 42.7605 127.223 43.3205 124.463 43.3205ZM127.163 34.2605C128.523 34.2605 129.723 33.9805 130.763 33.4205C131.843 32.8605 132.683 32.0805 133.283 31.0805C133.923 30.0805 134.243 28.9205 134.243 27.6005C134.243 26.2805 133.923 25.1205 133.283 24.1205C132.683 23.1205 131.843 22.3605 130.763 21.8405C129.723 21.2805 128.523 21.0005 127.163 21.0005C125.803 21.0005 124.583 21.2805 123.503 21.8405C122.423 22.3605 121.563 23.1205 120.923 24.1205C120.323 25.1205 120.023 26.2805 120.023 27.6005C120.023 28.9205 120.323 30.0805 120.923 31.0805C121.563 32.0805 122.423 32.8605 123.503 33.4205C124.583 33.9805 125.803 34.2605 127.163 34.2605Z" fill="white"/>
<path d="M155.388 45.0005V3.00047H174.588C178.428 3.00047 181.728 3.62047 184.488 4.86047C187.288 6.10047 189.448 7.90047 190.968 10.2605C192.488 12.5805 193.248 15.3405 193.248 18.5405C193.248 21.7005 192.488 24.4405 190.968 26.7605C189.448 29.0805 187.288 30.8805 184.488 32.1605C181.728 33.4005 178.428 34.0205 174.588 34.0205H161.988L167.268 28.8605V45.0005H155.388ZM167.268 30.1205L161.988 24.6605H173.868C176.348 24.6605 178.188 24.1205 179.388 23.0405C180.628 21.9605 181.248 20.4605 181.248 18.5405C181.248 16.5805 180.628 15.0605 179.388 13.9805C178.188 12.9005 176.348 12.3605 173.868 12.3605H161.988L167.268 6.90047V30.1205Z" fill="#CAF31E"/>
<path d="M216.761 45.5405C213.201 45.5405 210.041 44.8205 207.281 43.3805C204.521 41.9405 202.341 39.9605 200.741 37.4405C199.181 34.8805 198.401 31.9605 198.401 28.6805C198.401 25.4005 199.181 22.5005 200.741 19.9805C202.341 17.4605 204.521 15.5005 207.281 14.1005C210.041 12.6605 213.201 11.9405 216.761 11.9405C220.321 11.9405 223.481 12.6605 226.241 14.1005C229.041 15.5005 231.221 17.4605 232.781 19.9805C234.341 22.5005 235.121 25.4005 235.121 28.6805C235.121 31.9605 234.341 34.8805 232.781 37.4405C231.221 39.9605 229.041 41.9405 226.241 43.3805C223.481 44.8205 220.321 45.5405 216.761 45.5405ZM216.761 36.4805C218.081 36.4805 219.241 36.1805 220.241 35.5805C221.281 34.9805 222.101 34.1005 222.701 32.9405C223.301 31.7405 223.601 30.3205 223.601 28.6805C223.601 27.0405 223.301 25.6605 222.701 24.5405C222.101 23.3805 221.281 22.5005 220.241 21.9005C219.241 21.3005 218.081 21.0005 216.761 21.0005C215.481 21.0005 214.321 21.3005 213.281 21.9005C212.281 22.5005 211.461 23.3805 210.821 24.5405C210.221 25.6605 209.921 27.0405 209.921 28.6805C209.921 30.3205 210.221 31.7405 210.821 32.9405C211.461 34.1005 212.281 34.9805 213.281 35.5805C214.321 36.1805 215.481 36.4805 216.761 36.4805Z" fill="#CAF31E"/>
<path d="M256.562 45.5405C253.602 45.5405 250.902 44.8605 248.462 43.5005C246.062 42.1005 244.142 40.1605 242.702 37.6805C241.262 35.1605 240.542 32.1605 240.542 28.6805C240.542 25.2405 241.262 22.2805 242.702 19.8005C244.142 17.2805 246.062 15.3405 248.462 13.9805C250.902 12.6205 253.602 11.9405 256.562 11.9405C259.362 11.9405 261.722 12.5405 263.642 13.7405C265.602 14.9405 267.082 16.7805 268.082 19.2605C269.082 21.7405 269.582 24.8805 269.582 28.6805C269.582 32.5605 269.102 35.7405 268.142 38.2205C267.182 40.7005 265.742 42.5405 263.822 43.7405C261.902 44.9405 259.482 45.5405 256.562 45.5405ZM258.962 36.4805C260.242 36.4805 261.382 36.1805 262.382 35.5805C263.422 34.9805 264.242 34.1005 264.842 32.9405C265.442 31.7405 265.742 30.3205 265.742 28.6805C265.742 27.0405 265.442 25.6605 264.842 24.5405C264.242 23.3805 263.422 22.5005 262.382 21.9005C261.382 21.3005 260.242 21.0005 258.962 21.0005C257.642 21.0005 256.462 21.3005 255.422 21.9005C254.422 22.5005 253.622 23.3805 253.022 24.5405C252.422 25.6605 252.122 27.0405 252.122 28.6805C252.122 30.3205 252.422 31.7405 253.022 32.9405C253.622 34.1005 254.422 34.9805 255.422 35.5805C256.462 36.1805 257.642 36.4805 258.962 36.4805ZM266.102 45.0005V39.4205L266.162 28.6805L265.562 17.9405V0.480469H276.962V45.0005H266.102Z" fill="#CAF31E"/>
</svg>
